<?xml version="1.0" encoding="utf-8"?>
<!-- Generator: Adobe Illustrator 23.0.3, SVG Export Plug-In . SVG Version: 6.00 Build 0)  -->
<svg version="1.1" id="Layer_1" xmlns="http://www.w3.org/2000/svg" xmlns:xlink="http://www.w3.org/1999/xlink" x="0px" y="0px"
	 viewBox="0 0 1221 1221" style="enable-background:new 0 0 1221 1221;" xml:space="preserve">
<g transform="translate(330,0) scale(0.33,0.33)">
	<g transform="">
		<rect x="200" y="200" width="100" height="100"/>
	</g>
</g>
<g transform="translate(363,0) scale(0.33,0.33)">
	<g transform="">
		<rect x="200" y="200" width="100" height="100"/>
	</g>
</g>
<g transform="translate(495,0) scale(0.33,0.33)">
	<g transform="">
		<rect x="200" y="200" width="100" height="100"/>
	</g>
</g>
<g transform="translate(594,0) scale(0.33,0.33)">
	<g transform="">
		<rect x="200" y="200" width="100" height="100"/>
	</g>
</g>
<g transform="translate(693,0) scale(0.33,0.33)">
	<g transform="">
		<rect x="200" y="200" width="100" height="100"/>
	</g>
</g>
<g transform="translate(726,0) scale(0.33,0.33)">
	<g transform="">
		<rect x="200" y="200" width="100" height="100"/>
	</g>
</g>
<g transform="translate(759,0) scale(0.33,0.33)">
	<g transform="">
		<rect x="200" y="200" width="100" height="100"/>
	</g>
</g>
<g transform="translate(330,33) scale(0.33,0.33)">
	<g transform="">
		<rect x="200" y="200" width="100" height="100"/>
	</g>
</g>
<g transform="translate(495,33) scale(0.33,0.33)">
	<g transform="">
		<rect x="200" y="200" width="100" height="100"/>
	</g>
</g>
<g transform="translate(561,33) scale(0.33,0.33)">
	<g transform="">
		<rect x="200" y="200" width="100" height="100"/>
	</g>
</g>
<g transform="translate(660,33) scale(0.33,0.33)">
	<g transform="">
		<rect x="200" y="200" width="100" height="100"/>
	</g>
</g>
<g transform="translate(693,33) scale(0.33,0.33)">
	<g transform="">
		<rect x="200" y="200" width="100" height="100"/>
	</g>
</g>
<g transform="translate(759,33) scale(0.33,0.33)">
	<g transform="">
		<rect x="200" y="200" width="100" height="100"/>
	</g>
</g>
<g transform="translate(792,33) scale(0.33,0.33)">
	<g transform="">
		<rect x="200" y="200" width="100" height="100"/>
	</g>
</g>
<g transform="translate(396,66) scale(0.33,0.33)">
	<g transform="">
		<rect x="200" y="200" width="100" height="100"/>
	</g>
</g>
<g transform="translate(462,66) scale(0.33,0.33)">
	<g transform="">
		<rect x="200" y="200" width="100" height="100"/>
	</g>
</g>
<g transform="translate(495,66) scale(0.33,0.33)">
	<g transform="">
		<rect x="200" y="200" width="100" height="100"/>
	</g>
</g>
<g transform="translate(561,66) scale(0.33,0.33)">
	<g transform="">
		<rect x="200" y="200" width="100" height="100"/>
	</g>
</g>
<g transform="translate(660,66) scale(0.33,0.33)">
	<g transform="">
		<rect x="200" y="200" width="100" height="100"/>
	</g>
</g>
<g transform="translate(759,66) scale(0.33,0.33)">
	<g transform="">
		<rect x="200" y="200" width="100" height="100"/>
	</g>
</g>
<g transform="translate(297,99) scale(0.33,0.33)">
	<g transform="">
		<rect x="200" y="200" width="100" height="100"/>
	</g>
</g>
<g transform="translate(330,99) scale(0.33,0.33)">
	<g transform="">
		<rect x="200" y="200" width="100" height="100"/>
	</g>
</g>
<g transform="translate(396,99) scale(0.33,0.33)">
	<g transform="">
		<rect x="200" y="200" width="100" height="100"/>
	</g>
</g>
<g transform="translate(429,99) scale(0.33,0.33)">
	<g transform="">
		<rect x="200" y="200" width="100" height="100"/>
	</g>
</g>
<g transform="translate(561,99) scale(0.33,0.33)">
	<g transform="">
		<rect x="200" y="200" width="100" height="100"/>
	</g>
</g>
<g transform="translate(726,99) scale(0.33,0.33)">
	<g transform="">
		<rect x="200" y="200" width="100" height="100"/>
	</g>
</g>
<g transform="translate(759,99) scale(0.33,0.33)">
	<g transform="">
		<rect x="200" y="200" width="100" height="100"/>
	</g>
</g>
<g transform="translate(297,132) scale(0.33,0.33)">
	<g transform="">
		<rect x="200" y="200" width="100" height="100"/>
	</g>
</g>
<g transform="translate(330,132) scale(0.33,0.33)">
	<g transform="">
		<rect x="200" y="200" width="100" height="100"/>
	</g>
</g>
<g transform="translate(429,132) scale(0.33,0.33)">
	<g transform="">
		<rect x="200" y="200" width="100" height="100"/>
	</g>
</g>
<g transform="translate(528,132) scale(0.33,0.33)">
	<g transform="">
		<rect x="200" y="200" width="100" height="100"/>
	</g>
</g>
<g transform="translate(561,132) scale(0.33,0.33)">
	<g transform="">
		<rect x="200" y="200" width="100" height="100"/>
	</g>
</g>
<g transform="translate(627,132) scale(0.33,0.33)">
	<g transform="">
		<rect x="200" y="200" width="100" height="100"/>
	</g>
</g>
<g transform="translate(759,132) scale(0.33,0.33)">
	<g transform="">
		<rect x="200" y="200" width="100" height="100"/>
	</g>
</g>
<g transform="translate(264,165) scale(0.33,0.33)">
	<g transform="">
		<rect x="200" y="200" width="100" height="100"/>
	</g>
</g>
<g transform="translate(330,165) scale(0.33,0.33)">
	<g transform="">
		<rect x="200" y="200" width="100" height="100"/>
	</g>
</g>
<g transform="translate(363,165) scale(0.33,0.33)">
	<g transform="">
		<rect x="200" y="200" width="100" height="100"/>
	</g>
</g>
<g transform="translate(429,165) scale(0.33,0.33)">
	<g transform="">
		<rect x="200" y="200" width="100" height="100"/>
	</g>
</g>
<g transform="translate(462,165) scale(0.33,0.33)">
	<g transform="">
		<rect x="200" y="200" width="100" height="100"/>
	</g>
</g>
<g transform="translate(561,165) scale(0.33,0.33)">
	<g transform="">
		<rect x="200" y="200" width="100" height="100"/>
	</g>
</g>
<g transform="translate(594,165) scale(0.33,0.33)">
	<g transform="">
		<rect x="200" y="200" width="100" height="100"/>
	</g>
</g>
<g transform="translate(660,165) scale(0.33,0.33)">
	<g transform="">
		<rect x="200" y="200" width="100" height="100"/>
	</g>
</g>
<g transform="translate(792,165) scale(0.33,0.33)">
	<g transform="">
		<rect x="200" y="200" width="100" height="100"/>
	</g>
</g>
<g transform="translate(264,198) scale(0.33,0.33)">
	<g transform="">
		<rect x="200" y="200" width="100" height="100"/>
	</g>
</g>
<g transform="translate(330,198) scale(0.33,0.33)">
	<g transform="">
		<rect x="200" y="200" width="100" height="100"/>
	</g>
</g>
<g transform="translate(396,198) scale(0.33,0.33)">
	<g transform="">
		<rect x="200" y="200" width="100" height="100"/>
	</g>
</g>
<g transform="translate(462,198) scale(0.33,0.33)">
	<g transform="">
		<rect x="200" y="200" width="100" height="100"/>
	</g>
</g>
<g transform="translate(528,198) scale(0.33,0.33)">
	<g transform="">
		<rect x="200" y="200" width="100" height="100"/>
	</g>
</g>
<g transform="translate(594,198) scale(0.33,0.33)">
	<g transform="">
		<rect x="200" y="200" width="100" height="100"/>
	</g>
</g>
<g transform="translate(660,198) scale(0.33,0.33)">
	<g transform="">
		<rect x="200" y="200" width="100" height="100"/>
	</g>
</g>
<g transform="translate(726,198) scale(0.33,0.33)">
	<g transform="">
		<rect x="200" y="200" width="100" height="100"/>
	</g>
</g>
<g transform="translate(792,198) scale(0.33,0.33)">
	<g transform="">
		<rect x="200" y="200" width="100" height="100"/>
	</g>
</g>
<g transform="translate(297,231) scale(0.33,0.33)">
	<g transform="">
		<rect x="200" y="200" width="100" height="100"/>
	</g>
</g>
<g transform="translate(363,231) scale(0.33,0.33)">
	<g transform="">
		<rect x="200" y="200" width="100" height="100"/>
	</g>
</g>
<g transform="translate(462,231) scale(0.33,0.33)">
	<g transform="">
		<rect x="200" y="200" width="100" height="100"/>
	</g>
</g>
<g transform="translate(561,231) scale(0.33,0.33)">
	<g transform="">
		<rect x="200" y="200" width="100" height="100"/>
	</g>
</g>
<g transform="translate(627,231) scale(0.33,0.33)">
	<g transform="">
		<rect x="200" y="200" width="100" height="100"/>
	</g>
</g>
<g transform="translate(660,231) scale(0.33,0.33)">
	<g transform="">
		<rect x="200" y="200" width="100" height="100"/>
	</g>
</g>
<g transform="translate(693,231) scale(0.33,0.33)">
	<g transform="">
		<rect x="200" y="200" width="100" height="100"/>
	</g>
</g>
<g transform="translate(726,231) scale(0.33,0.33)">
	<g transform="">
		<rect x="200" y="200" width="100" height="100"/>
	</g>
</g>
<g transform="translate(792,231) scale(0.33,0.33)">
	<g transform="">
		<rect x="200" y="200" width="100" height="100"/>
	</g>
</g>
<g transform="translate(0,264) scale(0.33,0.33)">
	<g transform="">
		<rect x="200" y="200" width="100" height="100"/>
	</g>
</g>
<g transform="translate(99,264) scale(0.33,0.33)">
	<g transform="">
		<rect x="200" y="200" width="100" height="100"/>
	</g>
</g>
<g transform="translate(165,264) scale(0.33,0.33)">
	<g transform="">
		<rect x="200" y="200" width="100" height="100"/>
	</g>
</g>
<g transform="translate(198,264) scale(0.33,0.33)">
	<g transform="">
		<rect x="200" y="200" width="100" height="100"/>
	</g>
</g>
<g transform="translate(264,264) scale(0.33,0.33)">
	<g transform="">
		<rect x="200" y="200" width="100" height="100"/>
	</g>
</g>
<g transform="translate(297,264) scale(0.33,0.33)">
	<g transform="">
		<rect x="200" y="200" width="100" height="100"/>
	</g>
</g>
<g transform="translate(330,264) scale(0.33,0.33)">
	<g transform="">
		<rect x="200" y="200" width="100" height="100"/>
	</g>
</g>
<g transform="translate(363,264) scale(0.33,0.33)">
	<g transform="">
		<rect x="200" y="200" width="100" height="100"/>
	</g>
</g>
<g transform="translate(429,264) scale(0.33,0.33)">
	<g transform="">
		<rect x="200" y="200" width="100" height="100"/>
	</g>
</g>
<g transform="translate(462,264) scale(0.33,0.33)">
	<g transform="">
		<rect x="200" y="200" width="100" height="100"/>
	</g>
</g>
<g transform="translate(495,264) scale(0.33,0.33)">
	<g transform="">
		<rect x="200" y="200" width="100" height="100"/>
	</g>
</g>
<g transform="translate(528,264) scale(0.33,0.33)">
	<g transform="">
		<rect x="200" y="200" width="100" height="100"/>
	</g>
</g>
<g transform="translate(627,264) scale(0.33,0.33)">
	<g transform="">
		<rect x="200" y="200" width="100" height="100"/>
	</g>
</g>
<g transform="translate(693,264) scale(0.33,0.33)">
	<g transform="">
		<rect x="200" y="200" width="100" height="100"/>
	</g>
</g>
<g transform="translate(726,264) scale(0.33,0.33)">
	<g transform="">
		<rect x="200" y="200" width="100" height="100"/>
	</g>
</g>
<g transform="translate(825,264) scale(0.33,0.33)">
	<g transform="">
		<rect x="200" y="200" width="100" height="100"/>
	</g>
</g>
<g transform="translate(891,264) scale(0.33,0.33)">
	<g transform="">
		<rect x="200" y="200" width="100" height="100"/>
	</g>
</g>
<g transform="translate(0,297) scale(0.33,0.33)">
	<g transform="">
		<rect x="200" y="200" width="100" height="100"/>
	</g>
</g>
<g transform="translate(33,297) scale(0.33,0.33)">
	<g transform="">
		<rect x="200" y="200" width="100" height="100"/>
	</g>
</g>
<g transform="translate(66,297) scale(0.33,0.33)">
	<g transform="">
		<rect x="200" y="200" width="100" height="100"/>
	</g>
</g>
<g transform="translate(99,297) scale(0.33,0.33)">
	<g transform="">
		<rect x="200" y="200" width="100" height="100"/>
	</g>
</g>
<g transform="translate(165,297) scale(0.33,0.33)">
	<g transform="">
		<rect x="200" y="200" width="100" height="100"/>
	</g>
</g>
<g transform="translate(231,297) scale(0.33,0.33)">
	<g transform="">
		<rect x="200" y="200" width="100" height="100"/>
	</g>
</g>
<g transform="translate(330,297) scale(0.33,0.33)">
	<g transform="">
		<rect x="200" y="200" width="100" height="100"/>
	</g>
</g>
<g transform="translate(363,297) scale(0.33,0.33)">
	<g transform="">
		<rect x="200" y="200" width="100" height="100"/>
	</g>
</g>
<g transform="translate(396,297) scale(0.33,0.33)">
	<g transform="">
		<rect x="200" y="200" width="100" height="100"/>
	</g>
</g>
<g transform="translate(462,297) scale(0.33,0.33)">
	<g transform="">
		<rect x="200" y="200" width="100" height="100"/>
	</g>
</g>
<g transform="translate(693,297) scale(0.33,0.33)">
	<g transform="">
		<rect x="200" y="200" width="100" height="100"/>
	</g>
</g>
<g transform="translate(792,297) scale(0.33,0.33)">
	<g transform="">
		<rect x="200" y="200" width="100" height="100"/>
	</g>
</g>
<g transform="translate(825,297) scale(0.33,0.33)">
	<g transform="">
		<rect x="200" y="200" width="100" height="100"/>
	</g>
</g>
<g transform="translate(858,297) scale(0.33,0.33)">
	<g transform="">
		<rect x="200" y="200" width="100" height="100"/>
	</g>
</g>
<g transform="translate(891,297) scale(0.33,0.33)">
	<g transform="">
		<rect x="200" y="200" width="100" height="100"/>
	</g>
</g>
<g transform="translate(1056,297) scale(0.33,0.33)">
	<g transform="">
		<rect x="200" y="200" width="100" height="100"/>
	</g>
</g>
<g transform="translate(66,330) scale(0.33,0.33)">
	<g transform="">
		<rect x="200" y="200" width="100" height="100"/>
	</g>
</g>
<g transform="translate(99,330) scale(0.33,0.33)">
	<g transform="">
		<rect x="200" y="200" width="100" height="100"/>
	</g>
</g>
<g transform="translate(165,330) scale(0.33,0.33)">
	<g transform="">
		<rect x="200" y="200" width="100" height="100"/>
	</g>
</g>
<g transform="translate(198,330) scale(0.33,0.33)">
	<g transform="">
		<rect x="200" y="200" width="100" height="100"/>
	</g>
</g>
<g transform="translate(297,330) scale(0.33,0.33)">
	<g transform="">
		<rect x="200" y="200" width="100" height="100"/>
	</g>
</g>
<g transform="translate(363,330) scale(0.33,0.33)">
	<g transform="">
		<rect x="200" y="200" width="100" height="100"/>
	</g>
</g>
<g transform="translate(396,330) scale(0.33,0.33)">
	<g transform="">
		<rect x="200" y="200" width="100" height="100"/>
	</g>
</g>
<g transform="translate(561,330) scale(0.33,0.33)">
	<g transform="">
		<rect x="200" y="200" width="100" height="100"/>
	</g>
</g>
<g transform="translate(627,330) scale(0.33,0.33)">
	<g transform="">
		<rect x="200" y="200" width="100" height="100"/>
	</g>
</g>
<g transform="translate(660,330) scale(0.33,0.33)">
	<g transform="">
		<rect x="200" y="200" width="100" height="100"/>
	</g>
</g>
<g transform="translate(726,330) scale(0.33,0.33)">
	<g transform="">
		<rect x="200" y="200" width="100" height="100"/>
	</g>
</g>
<g transform="translate(792,330) scale(0.33,0.33)">
	<g transform="">
		<rect x="200" y="200" width="100" height="100"/>
	</g>
</g>
<g transform="translate(891,330) scale(0.33,0.33)">
	<g transform="">
		<rect x="200" y="200" width="100" height="100"/>
	</g>
</g>
<g transform="translate(924,330) scale(0.33,0.33)">
	<g transform="">
		<rect x="200" y="200" width="100" height="100"/>
	</g>
</g>
<g transform="translate(990,330) scale(0.33,0.33)">
	<g transform="">
		<rect x="200" y="200" width="100" height="100"/>
	</g>
</g>
<g transform="translate(1056,330) scale(0.33,0.33)">
	<g transform="">
		<rect x="200" y="200" width="100" height="100"/>
	</g>
</g>
<g transform="translate(0,363) scale(0.33,0.33)">
	<g transform="">
		<rect x="200" y="200" width="100" height="100"/>
	</g>
</g>
<g transform="translate(33,363) scale(0.33,0.33)">
	<g transform="">
		<rect x="200" y="200" width="100" height="100"/>
	</g>
</g>
<g transform="translate(132,363) scale(0.33,0.33)">
	<g transform="">
		<rect x="200" y="200" width="100" height="100"/>
	</g>
</g>
<g transform="translate(231,363) scale(0.33,0.33)">
	<g transform="">
		<rect x="200" y="200" width="100" height="100"/>
	</g>
</g>
<g transform="translate(330,363) scale(0.33,0.33)">
	<g transform="">
		<rect x="200" y="200" width="100" height="100"/>
	</g>
</g>
<g transform="translate(396,363) scale(0.33,0.33)">
	<g transform="">
		<rect x="200" y="200" width="100" height="100"/>
	</g>
</g>
<g transform="translate(462,363) scale(0.33,0.33)">
	<g transform="">
		<rect x="200" y="200" width="100" height="100"/>
	</g>
</g>
<g transform="translate(561,363) scale(0.33,0.33)">
	<g transform="">
		<rect x="200" y="200" width="100" height="100"/>
	</g>
</g>
<g transform="translate(660,363) scale(0.33,0.33)">
	<g transform="">
		<rect x="200" y="200" width="100" height="100"/>
	</g>
</g>
<g transform="translate(693,363) scale(0.33,0.33)">
	<g transform="">
		<rect x="200" y="200" width="100" height="100"/>
	</g>
</g>
<g transform="translate(726,363) scale(0.33,0.33)">
	<g transform="">
		<rect x="200" y="200" width="100" height="100"/>
	</g>
</g>
<g transform="translate(825,363) scale(0.33,0.33)">
	<g transform="">
		<rect x="200" y="200" width="100" height="100"/>
	</g>
</g>
<g transform="translate(924,363) scale(0.33,0.33)">
	<g transform="">
		<rect x="200" y="200" width="100" height="100"/>
	</g>
</g>
<g transform="translate(957,363) scale(0.33,0.33)">
	<g transform="">
		<rect x="200" y="200" width="100" height="100"/>
	</g>
</g>
<g transform="translate(1023,363) scale(0.33,0.33)">
	<g transform="">
		<rect x="200" y="200" width="100" height="100"/>
	</g>
</g>
<g transform="translate(66,396) scale(0.33,0.33)">
	<g transform="">
		<rect x="200" y="200" width="100" height="100"/>
	</g>
</g>
<g transform="translate(165,396) scale(0.33,0.33)">
	<g transform="">
		<rect x="200" y="200" width="100" height="100"/>
	</g>
</g>
<g transform="translate(198,396) scale(0.33,0.33)">
	<g transform="">
		<rect x="200" y="200" width="100" height="100"/>
	</g>
</g>
<g transform="translate(231,396) scale(0.33,0.33)">
	<g transform="">
		<rect x="200" y="200" width="100" height="100"/>
	</g>
</g>
<g transform="translate(297,396) scale(0.33,0.33)">
	<g transform="">
		<rect x="200" y="200" width="100" height="100"/>
	</g>
</g>
<g transform="translate(330,396) scale(0.33,0.33)">
	<g transform="">
		<rect x="200" y="200" width="100" height="100"/>
	</g>
</g>
<g transform="translate(396,396) scale(0.33,0.33)">
	<g transform="">
		<rect x="200" y="200" width="100" height="100"/>
	</g>
</g>
<g transform="translate(627,396) scale(0.33,0.33)">
	<g transform="">
		<rect x="200" y="200" width="100" height="100"/>
	</g>
</g>
<g transform="translate(693,396) scale(0.33,0.33)">
	<g transform="">
		<rect x="200" y="200" width="100" height="100"/>
	</g>
</g>
<g transform="translate(759,396) scale(0.33,0.33)">
	<g transform="">
		<rect x="200" y="200" width="100" height="100"/>
	</g>
</g>
<g transform="translate(825,396) scale(0.33,0.33)">
	<g transform="">
		<rect x="200" y="200" width="100" height="100"/>
	</g>
</g>
<g transform="translate(858,396) scale(0.33,0.33)">
	<g transform="">
		<rect x="200" y="200" width="100" height="100"/>
	</g>
</g>
<g transform="translate(957,396) scale(0.33,0.33)">
	<g transform="">
		<rect x="200" y="200" width="100" height="100"/>
	</g>
</g>
<g transform="translate(1023,396) scale(0.33,0.33)">
	<g transform="">
		<rect x="200" y="200" width="100" height="100"/>
	</g>
</g>
<g transform="translate(0,429) scale(0.33,0.33)">
	<g transform="">
		<rect x="200" y="200" width="100" height="100"/>
	</g>
</g>
<g transform="translate(33,429) scale(0.33,0.33)">
	<g transform="">
		<rect x="200" y="200" width="100" height="100"/>
	</g>
</g>
<g transform="translate(66,429) scale(0.33,0.33)">
	<g transform="">
		<rect x="200" y="200" width="100" height="100"/>
	</g>
</g>
<g transform="translate(132,429) scale(0.33,0.33)">
	<g transform="">
		<rect x="200" y="200" width="100" height="100"/>
	</g>
</g>
<g transform="translate(165,429) scale(0.33,0.33)">
	<g transform="">
		<rect x="200" y="200" width="100" height="100"/>
	</g>
</g>
<g transform="translate(231,429) scale(0.33,0.33)">
	<g transform="">
		<rect x="200" y="200" width="100" height="100"/>
	</g>
</g>
<g transform="translate(264,429) scale(0.33,0.33)">
	<g transform="">
		<rect x="200" y="200" width="100" height="100"/>
	</g>
</g>
<g transform="translate(330,429) scale(0.33,0.33)">
	<g transform="">
		<rect x="200" y="200" width="100" height="100"/>
	</g>
</g>
<g transform="translate(396,429) scale(0.33,0.33)">
	<g transform="">
		<rect x="200" y="200" width="100" height="100"/>
	</g>
</g>
<g transform="translate(495,429) scale(0.33,0.33)">
	<g transform="">
		<rect x="200" y="200" width="100" height="100"/>
	</g>
</g>
<g transform="translate(528,429) scale(0.33,0.33)">
	<g transform="">
		<rect x="200" y="200" width="100" height="100"/>
	</g>
</g>
<g transform="translate(726,429) scale(0.33,0.33)">
	<g transform="">
		<rect x="200" y="200" width="100" height="100"/>
	</g>
</g>
<g transform="translate(759,429) scale(0.33,0.33)">
	<g transform="">
		<rect x="200" y="200" width="100" height="100"/>
	</g>
</g>
<g transform="translate(792,429) scale(0.33,0.33)">
	<g transform="">
		<rect x="200" y="200" width="100" height="100"/>
	</g>
</g>
<g transform="translate(858,429) scale(0.33,0.33)">
	<g transform="">
		<rect x="200" y="200" width="100" height="100"/>
	</g>
</g>
<g transform="translate(924,429) scale(0.33,0.33)">
	<g transform="">
		<rect x="200" y="200" width="100" height="100"/>
	</g>
</g>
<g transform="translate(1023,429) scale(0.33,0.33)">
	<g transform="">
		<rect x="200" y="200" width="100" height="100"/>
	</g>
</g>
<g transform="translate(1056,429) scale(0.33,0.33)">
	<g transform="">
		<rect x="200" y="200" width="100" height="100"/>
	</g>
</g>
<g transform="translate(0,462) scale(0.33,0.33)">
	<g transform="">
		<rect x="200" y="200" width="100" height="100"/>
	</g>
</g>
<g transform="translate(33,462) scale(0.33,0.33)">
	<g transform="">
		<rect x="200" y="200" width="100" height="100"/>
	</g>
</g>
<g transform="translate(99,462) scale(0.33,0.33)">
	<g transform="">
		<rect x="200" y="200" width="100" height="100"/>
	</g>
</g>
<g transform="translate(132,462) scale(0.33,0.33)">
	<g transform="">
		<rect x="200" y="200" width="100" height="100"/>
	</g>
</g>
<g transform="translate(165,462) scale(0.33,0.33)">
	<g transform="">
		<rect x="200" y="200" width="100" height="100"/>
	</g>
</g>
<g transform="translate(198,462) scale(0.33,0.33)">
	<g transform="">
		<rect x="200" y="200" width="100" height="100"/>
	</g>
</g>
<g transform="translate(264,462) scale(0.33,0.33)">
	<g transform="">
		<rect x="200" y="200" width="100" height="100"/>
	</g>
</g>
<g transform="translate(297,462) scale(0.33,0.33)">
	<g transform="">
		<rect x="200" y="200" width="100" height="100"/>
	</g>
</g>
<g transform="translate(396,462) scale(0.33,0.33)">
	<g transform="">
		<rect x="200" y="200" width="100" height="100"/>
	</g>
</g>
<g transform="translate(429,462) scale(0.33,0.33)">
	<g transform="">
		<rect x="200" y="200" width="100" height="100"/>
	</g>
</g>
<g transform="translate(561,462) scale(0.33,0.33)">
	<g transform="">
		<rect x="200" y="200" width="100" height="100"/>
	</g>
</g>
<g transform="translate(594,462) scale(0.33,0.33)">
	<g transform="">
		<rect x="200" y="200" width="100" height="100"/>
	</g>
</g>
<g transform="translate(660,462) scale(0.33,0.33)">
	<g transform="">
		<rect x="200" y="200" width="100" height="100"/>
	</g>
</g>
<g transform="translate(693,462) scale(0.33,0.33)">
	<g transform="">
		<rect x="200" y="200" width="100" height="100"/>
	</g>
</g>
<g transform="translate(759,462) scale(0.33,0.33)">
	<g transform="">
		<rect x="200" y="200" width="100" height="100"/>
	</g>
</g>
<g transform="translate(825,462) scale(0.33,0.33)">
	<g transform="">
		<rect x="200" y="200" width="100" height="100"/>
	</g>
</g>
<g transform="translate(858,462) scale(0.33,0.33)">
	<g transform="">
		<rect x="200" y="200" width="100" height="100"/>
	</g>
</g>
<g transform="translate(891,462) scale(0.33,0.33)">
	<g transform="">
		<rect x="200" y="200" width="100" height="100"/>
	</g>
</g>
<g transform="translate(957,462) scale(0.33,0.33)">
	<g transform="">
		<rect x="200" y="200" width="100" height="100"/>
	</g>
</g>
<g transform="translate(990,462) scale(0.33,0.33)">
	<g transform="">
		<rect x="200" y="200" width="100" height="100"/>
	</g>
</g>
<g transform="translate(1023,462) scale(0.33,0.33)">
	<g transform="">
		<rect x="200" y="200" width="100" height="100"/>
	</g>
</g>
<g transform="translate(0,495) scale(0.33,0.33)">
	<g transform="">
		<rect x="200" y="200" width="100" height="100"/>
	</g>
</g>
<g transform="translate(165,495) scale(0.33,0.33)">
	<g transform="">
		<rect x="200" y="200" width="100" height="100"/>
	</g>
</g>
<g transform="translate(231,495) scale(0.33,0.33)">
	<g transform="">
		<rect x="200" y="200" width="100" height="100"/>
	</g>
</g>
<g transform="translate(264,495) scale(0.33,0.33)">
	<g transform="">
		<rect x="200" y="200" width="100" height="100"/>
	</g>
</g>
<g transform="translate(297,495) scale(0.33,0.33)">
	<g transform="">
		<rect x="200" y="200" width="100" height="100"/>
	</g>
</g>
<g transform="translate(495,495) scale(0.33,0.33)">
	<g transform="">
		<rect x="200" y="200" width="100" height="100"/>
	</g>
</g>
<g transform="translate(561,495) scale(0.33,0.33)">
	<g transform="">
		<rect x="200" y="200" width="100" height="100"/>
	</g>
</g>
<g transform="translate(594,495) scale(0.33,0.33)">
	<g transform="">
		<rect x="200" y="200" width="100" height="100"/>
	</g>
</g>
<g transform="translate(627,495) scale(0.33,0.33)">
	<g transform="">
		<rect x="200" y="200" width="100" height="100"/>
	</g>
</g>
<g transform="translate(693,495) scale(0.33,0.33)">
	<g transform="">
		<rect x="200" y="200" width="100" height="100"/>
	</g>
</g>
<g transform="translate(858,495) scale(0.33,0.33)">
	<g transform="">
		<rect x="200" y="200" width="100" height="100"/>
	</g>
</g>
<g transform="translate(1023,495) scale(0.33,0.33)">
	<g transform="">
		<rect x="200" y="200" width="100" height="100"/>
	</g>
</g>
<g transform="translate(66,528) scale(0.33,0.33)">
	<g transform="">
		<rect x="200" y="200" width="100" height="100"/>
	</g>
</g>
<g transform="translate(99,528) scale(0.33,0.33)">
	<g transform="">
		<rect x="200" y="200" width="100" height="100"/>
	</g>
</g>
<g transform="translate(132,528) scale(0.33,0.33)">
	<g transform="">
		<rect x="200" y="200" width="100" height="100"/>
	</g>
</g>
<g transform="translate(165,528) scale(0.33,0.33)">
	<g transform="">
		<rect x="200" y="200" width="100" height="100"/>
	</g>
</g>
<g transform="translate(198,528) scale(0.33,0.33)">
	<g transform="">
		<rect x="200" y="200" width="100" height="100"/>
	</g>
</g>
<g transform="translate(231,528) scale(0.33,0.33)">
	<g transform="">
		<rect x="200" y="200" width="100" height="100"/>
	</g>
</g>
<g transform="translate(297,528) scale(0.33,0.33)">
	<g transform="">
		<rect x="200" y="200" width="100" height="100"/>
	</g>
</g>
<g transform="translate(363,528) scale(0.33,0.33)">
	<g transform="">
		<rect x="200" y="200" width="100" height="100"/>
	</g>
</g>
<g transform="translate(396,528) scale(0.33,0.33)">
	<g transform="">
		<rect x="200" y="200" width="100" height="100"/>
	</g>
</g>
<g transform="translate(528,528) scale(0.33,0.33)">
	<g transform="">
		<rect x="200" y="200" width="100" height="100"/>
	</g>
</g>
<g transform="translate(561,528) scale(0.33,0.33)">
	<g transform="">
		<rect x="200" y="200" width="100" height="100"/>
	</g>
</g>
<g transform="translate(627,528) scale(0.33,0.33)">
	<g transform="">
		<rect x="200" y="200" width="100" height="100"/>
	</g>
</g>
<g transform="translate(660,528) scale(0.33,0.33)">
	<g transform="">
		<rect x="200" y="200" width="100" height="100"/>
	</g>
</g>
<g transform="translate(693,528) scale(0.33,0.33)">
	<g transform="">
		<rect x="200" y="200" width="100" height="100"/>
	</g>
</g>
<g transform="translate(726,528) scale(0.33,0.33)">
	<g transform="">
		<rect x="200" y="200" width="100" height="100"/>
	</g>
</g>
<g transform="translate(792,528) scale(0.33,0.33)">
	<g transform="">
		<rect x="200" y="200" width="100" height="100"/>
	</g>
</g>
<g transform="translate(858,528) scale(0.33,0.33)">
	<g transform="">
		<rect x="200" y="200" width="100" height="100"/>
	</g>
</g>
<g transform="translate(924,528) scale(0.33,0.33)">
	<g transform="">
		<rect x="200" y="200" width="100" height="100"/>
	</g>
</g>
<g transform="translate(957,528) scale(0.33,0.33)">
	<g transform="">
		<rect x="200" y="200" width="100" height="100"/>
	</g>
</g>
<g transform="translate(990,528) scale(0.33,0.33)">
	<g transform="">
		<rect x="200" y="200" width="100" height="100"/>
	</g>
</g>
<g transform="translate(1023,528) scale(0.33,0.33)">
	<g transform="">
		<rect x="200" y="200" width="100" height="100"/>
	</g>
</g>
<g transform="translate(264,561) scale(0.33,0.33)">
	<g transform="">
		<rect x="200" y="200" width="100" height="100"/>
	</g>
</g>
<g transform="translate(297,561) scale(0.33,0.33)">
	<g transform="">
		<rect x="200" y="200" width="100" height="100"/>
	</g>
</g>
<g transform="translate(330,561) scale(0.33,0.33)">
	<g transform="">
		<rect x="200" y="200" width="100" height="100"/>
	</g>
</g>
<g transform="translate(396,561) scale(0.33,0.33)">
	<g transform="">
		<rect x="200" y="200" width="100" height="100"/>
	</g>
</g>
<g transform="translate(462,561) scale(0.33,0.33)">
	<g transform="">
		<rect x="200" y="200" width="100" height="100"/>
	</g>
</g>
<g transform="translate(528,561) scale(0.33,0.33)">
	<g transform="">
		<rect x="200" y="200" width="100" height="100"/>
	</g>
</g>
<g transform="translate(594,561) scale(0.33,0.33)">
	<g transform="">
		<rect x="200" y="200" width="100" height="100"/>
	</g>
</g>
<g transform="translate(627,561) scale(0.33,0.33)">
	<g transform="">
		<rect x="200" y="200" width="100" height="100"/>
	</g>
</g>
<g transform="translate(693,561) scale(0.33,0.33)">
	<g transform="">
		<rect x="200" y="200" width="100" height="100"/>
	</g>
</g>
<g transform="translate(759,561) scale(0.33,0.33)">
	<g transform="">
		<rect x="200" y="200" width="100" height="100"/>
	</g>
</g>
<g transform="translate(792,561) scale(0.33,0.33)">
	<g transform="">
		<rect x="200" y="200" width="100" height="100"/>
	</g>
</g>
<g transform="translate(825,561) scale(0.33,0.33)">
	<g transform="">
		<rect x="200" y="200" width="100" height="100"/>
	</g>
</g>
<g transform="translate(891,561) scale(0.33,0.33)">
	<g transform="">
		<rect x="200" y="200" width="100" height="100"/>
	</g>
</g>
<g transform="translate(957,561) scale(0.33,0.33)">
	<g transform="">
		<rect x="200" y="200" width="100" height="100"/>
	</g>
</g>
<g transform="translate(1023,561) scale(0.33,0.33)">
	<g transform="">
		<rect x="200" y="200" width="100" height="100"/>
	</g>
</g>
<g transform="translate(33,594) scale(0.33,0.33)">
	<g transform="">
		<rect x="200" y="200" width="100" height="100"/>
	</g>
</g>
<g transform="translate(66,594) scale(0.33,0.33)">
	<g transform="">
		<rect x="200" y="200" width="100" height="100"/>
	</g>
</g>
<g transform="translate(99,594) scale(0.33,0.33)">
	<g transform="">
		<rect x="200" y="200" width="100" height="100"/>
	</g>
</g>
<g transform="translate(132,594) scale(0.33,0.33)">
	<g transform="">
		<rect x="200" y="200" width="100" height="100"/>
	</g>
</g>
<g transform="translate(198,594) scale(0.33,0.33)">
	<g transform="">
		<rect x="200" y="200" width="100" height="100"/>
	</g>
</g>
<g transform="translate(297,594) scale(0.33,0.33)">
	<g transform="">
		<rect x="200" y="200" width="100" height="100"/>
	</g>
</g>
<g transform="translate(363,594) scale(0.33,0.33)">
	<g transform="">
		<rect x="200" y="200" width="100" height="100"/>
	</g>
</g>
<g transform="translate(429,594) scale(0.33,0.33)">
	<g transform="">
		<rect x="200" y="200" width="100" height="100"/>
	</g>
</g>
<g transform="translate(594,594) scale(0.33,0.33)">
	<g transform="">
		<rect x="200" y="200" width="100" height="100"/>
	</g>
</g>
<g transform="translate(792,594) scale(0.33,0.33)">
	<g transform="">
		<rect x="200" y="200" width="100" height="100"/>
	</g>
</g>
<g transform="translate(825,594) scale(0.33,0.33)">
	<g transform="">
		<rect x="200" y="200" width="100" height="100"/>
	</g>
</g>
<g transform="translate(858,594) scale(0.33,0.33)">
	<g transform="">
		<rect x="200" y="200" width="100" height="100"/>
	</g>
</g>
<g transform="translate(990,594) scale(0.33,0.33)">
	<g transform="">
		<rect x="200" y="200" width="100" height="100"/>
	</g>
</g>
<g transform="translate(1023,594) scale(0.33,0.33)">
	<g transform="">
		<rect x="200" y="200" width="100" height="100"/>
	</g>
</g>
<g transform="translate(1056,594) scale(0.33,0.33)">
	<g transform="">
		<rect x="200" y="200" width="100" height="100"/>
	</g>
</g>
<g transform="translate(0,627) scale(0.33,0.33)">
	<g transform="">
		<rect x="200" y="200" width="100" height="100"/>
	</g>
</g>
<g transform="translate(66,627) scale(0.33,0.33)">
	<g transform="">
		<rect x="200" y="200" width="100" height="100"/>
	</g>
</g>
<g transform="translate(132,627) scale(0.33,0.33)">
	<g transform="">
		<rect x="200" y="200" width="100" height="100"/>
	</g>
</g>
<g transform="translate(264,627) scale(0.33,0.33)">
	<g transform="">
		<rect x="200" y="200" width="100" height="100"/>
	</g>
</g>
<g transform="translate(297,627) scale(0.33,0.33)">
	<g transform="">
		<rect x="200" y="200" width="100" height="100"/>
	</g>
</g>
<g transform="translate(363,627) scale(0.33,0.33)">
	<g transform="">
		<rect x="200" y="200" width="100" height="100"/>
	</g>
</g>
<g transform="translate(462,627) scale(0.33,0.33)">
	<g transform="">
		<rect x="200" y="200" width="100" height="100"/>
	</g>
</g>
<g transform="translate(495,627) scale(0.33,0.33)">
	<g transform="">
		<rect x="200" y="200" width="100" height="100"/>
	</g>
</g>
<g transform="translate(561,627) scale(0.33,0.33)">
	<g transform="">
		<rect x="200" y="200" width="100" height="100"/>
	</g>
</g>
<g transform="translate(594,627) scale(0.33,0.33)">
	<g transform="">
		<rect x="200" y="200" width="100" height="100"/>
	</g>
</g>
<g transform="translate(627,627) scale(0.33,0.33)">
	<g transform="">
		<rect x="200" y="200" width="100" height="100"/>
	</g>
</g>
<g transform="translate(660,627) scale(0.33,0.33)">
	<g transform="">
		<rect x="200" y="200" width="100" height="100"/>
	</g>
</g>
<g transform="translate(693,627) scale(0.33,0.33)">
	<g transform="">
		<rect x="200" y="200" width="100" height="100"/>
	</g>
</g>
<g transform="translate(726,627) scale(0.33,0.33)">
	<g transform="">
		<rect x="200" y="200" width="100" height="100"/>
	</g>
</g>
<g transform="translate(759,627) scale(0.33,0.33)">
	<g transform="">
		<rect x="200" y="200" width="100" height="100"/>
	</g>
</g>
<g transform="translate(792,627) scale(0.33,0.33)">
	<g transform="">
		<rect x="200" y="200" width="100" height="100"/>
	</g>
</g>
<g transform="translate(825,627) scale(0.33,0.33)">
	<g transform="">
		<rect x="200" y="200" width="100" height="100"/>
	</g>
</g>
<g transform="translate(891,627) scale(0.33,0.33)">
	<g transform="">
		<rect x="200" y="200" width="100" height="100"/>
	</g>
</g>
<g transform="translate(1023,627) scale(0.33,0.33)">
	<g transform="">
		<rect x="200" y="200" width="100" height="100"/>
	</g>
</g>
<g transform="translate(0,660) scale(0.33,0.33)">
	<g transform="">
		<rect x="200" y="200" width="100" height="100"/>
	</g>
</g>
<g transform="translate(99,660) scale(0.33,0.33)">
	<g transform="">
		<rect x="200" y="200" width="100" height="100"/>
	</g>
</g>
<g transform="translate(132,660) scale(0.33,0.33)">
	<g transform="">
		<rect x="200" y="200" width="100" height="100"/>
	</g>
</g>
<g transform="translate(165,660) scale(0.33,0.33)">
	<g transform="">
		<rect x="200" y="200" width="100" height="100"/>
	</g>
</g>
<g transform="translate(198,660) scale(0.33,0.33)">
	<g transform="">
		<rect x="200" y="200" width="100" height="100"/>
	</g>
</g>
<g transform="translate(264,660) scale(0.33,0.33)">
	<g transform="">
		<rect x="200" y="200" width="100" height="100"/>
	</g>
</g>
<g transform="translate(330,660) scale(0.33,0.33)">
	<g transform="">
		<rect x="200" y="200" width="100" height="100"/>
	</g>
</g>
<g transform="translate(363,660) scale(0.33,0.33)">
	<g transform="">
		<rect x="200" y="200" width="100" height="100"/>
	</g>
</g>
<g transform="translate(396,660) scale(0.33,0.33)">
	<g transform="">
		<rect x="200" y="200" width="100" height="100"/>
	</g>
</g>
<g transform="translate(462,660) scale(0.33,0.33)">
	<g transform="">
		<rect x="200" y="200" width="100" height="100"/>
	</g>
</g>
<g transform="translate(528,660) scale(0.33,0.33)">
	<g transform="">
		<rect x="200" y="200" width="100" height="100"/>
	</g>
</g>
<g transform="translate(561,660) scale(0.33,0.33)">
	<g transform="">
		<rect x="200" y="200" width="100" height="100"/>
	</g>
</g>
<g transform="translate(594,660) scale(0.33,0.33)">
	<g transform="">
		<rect x="200" y="200" width="100" height="100"/>
	</g>
</g>
<g transform="translate(627,660) scale(0.33,0.33)">
	<g transform="">
		<rect x="200" y="200" width="100" height="100"/>
	</g>
</g>
<g transform="translate(693,660) scale(0.33,0.33)">
	<g transform="">
		<rect x="200" y="200" width="100" height="100"/>
	</g>
</g>
<g transform="translate(759,660) scale(0.33,0.33)">
	<g transform="">
		<rect x="200" y="200" width="100" height="100"/>
	</g>
</g>
<g transform="translate(792,660) scale(0.33,0.33)">
	<g transform="">
		<rect x="200" y="200" width="100" height="100"/>
	</g>
</g>
<g transform="translate(825,660) scale(0.33,0.33)">
	<g transform="">
		<rect x="200" y="200" width="100" height="100"/>
	</g>
</g>
<g transform="translate(132,693) scale(0.33,0.33)">
	<g transform="">
		<rect x="200" y="200" width="100" height="100"/>
	</g>
</g>
<g transform="translate(231,693) scale(0.33,0.33)">
	<g transform="">
		<rect x="200" y="200" width="100" height="100"/>
	</g>
</g>
<g transform="translate(297,693) scale(0.33,0.33)">
	<g transform="">
		<rect x="200" y="200" width="100" height="100"/>
	</g>
</g>
<g transform="translate(330,693) scale(0.33,0.33)">
	<g transform="">
		<rect x="200" y="200" width="100" height="100"/>
	</g>
</g>
<g transform="translate(363,693) scale(0.33,0.33)">
	<g transform="">
		<rect x="200" y="200" width="100" height="100"/>
	</g>
</g>
<g transform="translate(429,693) scale(0.33,0.33)">
	<g transform="">
		<rect x="200" y="200" width="100" height="100"/>
	</g>
</g>
<g transform="translate(462,693) scale(0.33,0.33)">
	<g transform="">
		<rect x="200" y="200" width="100" height="100"/>
	</g>
</g>
<g transform="translate(495,693) scale(0.33,0.33)">
	<g transform="">
		<rect x="200" y="200" width="100" height="100"/>
	</g>
</g>
<g transform="translate(528,693) scale(0.33,0.33)">
	<g transform="">
		<rect x="200" y="200" width="100" height="100"/>
	</g>
</g>
<g transform="translate(561,693) scale(0.33,0.33)">
	<g transform="">
		<rect x="200" y="200" width="100" height="100"/>
	</g>
</g>
<g transform="translate(594,693) scale(0.33,0.33)">
	<g transform="">
		<rect x="200" y="200" width="100" height="100"/>
	</g>
</g>
<g transform="translate(627,693) scale(0.33,0.33)">
	<g transform="">
		<rect x="200" y="200" width="100" height="100"/>
	</g>
</g>
<g transform="translate(660,693) scale(0.33,0.33)">
	<g transform="">
		<rect x="200" y="200" width="100" height="100"/>
	</g>
</g>
<g transform="translate(693,693) scale(0.33,0.33)">
	<g transform="">
		<rect x="200" y="200" width="100" height="100"/>
	</g>
</g>
<g transform="translate(792,693) scale(0.33,0.33)">
	<g transform="">
		<rect x="200" y="200" width="100" height="100"/>
	</g>
</g>
<g transform="translate(858,693) scale(0.33,0.33)">
	<g transform="">
		<rect x="200" y="200" width="100" height="100"/>
	</g>
</g>
<g transform="translate(990,693) scale(0.33,0.33)">
	<g transform="">
		<rect x="200" y="200" width="100" height="100"/>
	</g>
</g>
<g transform="translate(1023,693) scale(0.33,0.33)">
	<g transform="">
		<rect x="200" y="200" width="100" height="100"/>
	</g>
</g>
<g transform="translate(1056,693) scale(0.33,0.33)">
	<g transform="">
		<rect x="200" y="200" width="100" height="100"/>
	</g>
</g>
<g transform="translate(0,726) scale(0.33,0.33)">
	<g transform="">
		<rect x="200" y="200" width="100" height="100"/>
	</g>
</g>
<g transform="translate(33,726) scale(0.33,0.33)">
	<g transform="">
		<rect x="200" y="200" width="100" height="100"/>
	</g>
</g>
<g transform="translate(198,726) scale(0.33,0.33)">
	<g transform="">
		<rect x="200" y="200" width="100" height="100"/>
	</g>
</g>
<g transform="translate(363,726) scale(0.33,0.33)">
	<g transform="">
		<rect x="200" y="200" width="100" height="100"/>
	</g>
</g>
<g transform="translate(429,726) scale(0.33,0.33)">
	<g transform="">
		<rect x="200" y="200" width="100" height="100"/>
	</g>
</g>
<g transform="translate(495,726) scale(0.33,0.33)">
	<g transform="">
		<rect x="200" y="200" width="100" height="100"/>
	</g>
</g>
<g transform="translate(561,726) scale(0.33,0.33)">
	<g transform="">
		<rect x="200" y="200" width="100" height="100"/>
	</g>
</g>
<g transform="translate(594,726) scale(0.33,0.33)">
	<g transform="">
		<rect x="200" y="200" width="100" height="100"/>
	</g>
</g>
<g transform="translate(660,726) scale(0.33,0.33)">
	<g transform="">
		<rect x="200" y="200" width="100" height="100"/>
	</g>
</g>
<g transform="translate(693,726) scale(0.33,0.33)">
	<g transform="">
		<rect x="200" y="200" width="100" height="100"/>
	</g>
</g>
<g transform="translate(858,726) scale(0.33,0.33)">
	<g transform="">
		<rect x="200" y="200" width="100" height="100"/>
	</g>
</g>
<g transform="translate(891,726) scale(0.33,0.33)">
	<g transform="">
		<rect x="200" y="200" width="100" height="100"/>
	</g>
</g>
<g transform="translate(957,726) scale(0.33,0.33)">
	<g transform="">
		<rect x="200" y="200" width="100" height="100"/>
	</g>
</g>
<g transform="translate(1056,726) scale(0.33,0.33)">
	<g transform="">
		<rect x="200" y="200" width="100" height="100"/>
	</g>
</g>
<g transform="translate(33,759) scale(0.33,0.33)">
	<g transform="">
		<rect x="200" y="200" width="100" height="100"/>
	</g>
</g>
<g transform="translate(99,759) scale(0.33,0.33)">
	<g transform="">
		<rect x="200" y="200" width="100" height="100"/>
	</g>
</g>
<g transform="translate(165,759) scale(0.33,0.33)">
	<g transform="">
		<rect x="200" y="200" width="100" height="100"/>
	</g>
</g>
<g transform="translate(231,759) scale(0.33,0.33)">
	<g transform="">
		<rect x="200" y="200" width="100" height="100"/>
	</g>
</g>
<g transform="translate(297,759) scale(0.33,0.33)">
	<g transform="">
		<rect x="200" y="200" width="100" height="100"/>
	</g>
</g>
<g transform="translate(330,759) scale(0.33,0.33)">
	<g transform="">
		<rect x="200" y="200" width="100" height="100"/>
	</g>
</g>
<g transform="translate(396,759) scale(0.33,0.33)">
	<g transform="">
		<rect x="200" y="200" width="100" height="100"/>
	</g>
</g>
<g transform="translate(429,759) scale(0.33,0.33)">
	<g transform="">
		<rect x="200" y="200" width="100" height="100"/>
	</g>
</g>
<g transform="translate(462,759) scale(0.33,0.33)">
	<g transform="">
		<rect x="200" y="200" width="100" height="100"/>
	</g>
</g>
<g transform="translate(528,759) scale(0.33,0.33)">
	<g transform="">
		<rect x="200" y="200" width="100" height="100"/>
	</g>
</g>
<g transform="translate(594,759) scale(0.33,0.33)">
	<g transform="">
		<rect x="200" y="200" width="100" height="100"/>
	</g>
</g>
<g transform="translate(693,759) scale(0.33,0.33)">
	<g transform="">
		<rect x="200" y="200" width="100" height="100"/>
	</g>
</g>
<g transform="translate(726,759) scale(0.33,0.33)">
	<g transform="">
		<rect x="200" y="200" width="100" height="100"/>
	</g>
</g>
<g transform="translate(891,759) scale(0.33,0.33)">
	<g transform="">
		<rect x="200" y="200" width="100" height="100"/>
	</g>
</g>
<g transform="translate(957,759) scale(0.33,0.33)">
	<g transform="">
		<rect x="200" y="200" width="100" height="100"/>
	</g>
</g>
<g transform="translate(1056,759) scale(0.33,0.33)">
	<g transform="">
		<rect x="200" y="200" width="100" height="100"/>
	</g>
</g>
<g transform="translate(0,792) scale(0.33,0.33)">
	<g transform="">
		<rect x="200" y="200" width="100" height="100"/>
	</g>
</g>
<g transform="translate(132,792) scale(0.33,0.33)">
	<g transform="">
		<rect x="200" y="200" width="100" height="100"/>
	</g>
</g>
<g transform="translate(198,792) scale(0.33,0.33)">
	<g transform="">
		<rect x="200" y="200" width="100" height="100"/>
	</g>
</g>
<g transform="translate(264,792) scale(0.33,0.33)">
	<g transform="">
		<rect x="200" y="200" width="100" height="100"/>
	</g>
</g>
<g transform="translate(297,792) scale(0.33,0.33)">
	<g transform="">
		<rect x="200" y="200" width="100" height="100"/>
	</g>
</g>
<g transform="translate(396,792) scale(0.33,0.33)">
	<g transform="">
		<rect x="200" y="200" width="100" height="100"/>
	</g>
</g>
<g transform="translate(495,792) scale(0.33,0.33)">
	<g transform="">
		<rect x="200" y="200" width="100" height="100"/>
	</g>
</g>
<g transform="translate(528,792) scale(0.33,0.33)">
	<g transform="">
		<rect x="200" y="200" width="100" height="100"/>
	</g>
</g>
<g transform="translate(561,792) scale(0.33,0.33)">
	<g transform="">
		<rect x="200" y="200" width="100" height="100"/>
	</g>
</g>
<g transform="translate(627,792) scale(0.33,0.33)">
	<g transform="">
		<rect x="200" y="200" width="100" height="100"/>
	</g>
</g>
<g transform="translate(660,792) scale(0.33,0.33)">
	<g transform="">
		<rect x="200" y="200" width="100" height="100"/>
	</g>
</g>
<g transform="translate(693,792) scale(0.33,0.33)">
	<g transform="">
		<rect x="200" y="200" width="100" height="100"/>
	</g>
</g>
<g transform="translate(759,792) scale(0.33,0.33)">
	<g transform="">
		<rect x="200" y="200" width="100" height="100"/>
	</g>
</g>
<g transform="translate(792,792) scale(0.33,0.33)">
	<g transform="">
		<rect x="200" y="200" width="100" height="100"/>
	</g>
</g>
<g transform="translate(825,792) scale(0.33,0.33)">
	<g transform="">
		<rect x="200" y="200" width="100" height="100"/>
	</g>
</g>
<g transform="translate(858,792) scale(0.33,0.33)">
	<g transform="">
		<rect x="200" y="200" width="100" height="100"/>
	</g>
</g>
<g transform="translate(891,792) scale(0.33,0.33)">
	<g transform="">
		<rect x="200" y="200" width="100" height="100"/>
	</g>
</g>
<g transform="translate(924,792) scale(0.33,0.33)">
	<g transform="">
		<rect x="200" y="200" width="100" height="100"/>
	</g>
</g>
<g transform="translate(1056,792) scale(0.33,0.33)">
	<g transform="">
		<rect x="200" y="200" width="100" height="100"/>
	</g>
</g>
<g transform="translate(264,825) scale(0.33,0.33)">
	<g transform="">
		<rect x="200" y="200" width="100" height="100"/>
	</g>
</g>
<g transform="translate(297,825) scale(0.33,0.33)">
	<g transform="">
		<rect x="200" y="200" width="100" height="100"/>
	</g>
</g>
<g transform="translate(330,825) scale(0.33,0.33)">
	<g transform="">
		<rect x="200" y="200" width="100" height="100"/>
	</g>
</g>
<g transform="translate(363,825) scale(0.33,0.33)">
	<g transform="">
		<rect x="200" y="200" width="100" height="100"/>
	</g>
</g>
<g transform="translate(429,825) scale(0.33,0.33)">
	<g transform="">
		<rect x="200" y="200" width="100" height="100"/>
	</g>
</g>
<g transform="translate(462,825) scale(0.33,0.33)">
	<g transform="">
		<rect x="200" y="200" width="100" height="100"/>
	</g>
</g>
<g transform="translate(594,825) scale(0.33,0.33)">
	<g transform="">
		<rect x="200" y="200" width="100" height="100"/>
	</g>
</g>
<g transform="translate(627,825) scale(0.33,0.33)">
	<g transform="">
		<rect x="200" y="200" width="100" height="100"/>
	</g>
</g>
<g transform="translate(726,825) scale(0.33,0.33)">
	<g transform="">
		<rect x="200" y="200" width="100" height="100"/>
	</g>
</g>
<g transform="translate(792,825) scale(0.33,0.33)">
	<g transform="">
		<rect x="200" y="200" width="100" height="100"/>
	</g>
</g>
<g transform="translate(924,825) scale(0.33,0.33)">
	<g transform="">
		<rect x="200" y="200" width="100" height="100"/>
	</g>
</g>
<g transform="translate(957,825) scale(0.33,0.33)">
	<g transform="">
		<rect x="200" y="200" width="100" height="100"/>
	</g>
</g>
<g transform="translate(1056,825) scale(0.33,0.33)">
	<g transform="">
		<rect x="200" y="200" width="100" height="100"/>
	</g>
</g>
<g transform="translate(297,858) scale(0.33,0.33)">
	<g transform="">
		<rect x="200" y="200" width="100" height="100"/>
	</g>
</g>
<g transform="translate(330,858) scale(0.33,0.33)">
	<g transform="">
		<rect x="200" y="200" width="100" height="100"/>
	</g>
</g>
<g transform="translate(363,858) scale(0.33,0.33)">
	<g transform="">
		<rect x="200" y="200" width="100" height="100"/>
	</g>
</g>
<g transform="translate(396,858) scale(0.33,0.33)">
	<g transform="">
		<rect x="200" y="200" width="100" height="100"/>
	</g>
</g>
<g transform="translate(429,858) scale(0.33,0.33)">
	<g transform="">
		<rect x="200" y="200" width="100" height="100"/>
	</g>
</g>
<g transform="translate(528,858) scale(0.33,0.33)">
	<g transform="">
		<rect x="200" y="200" width="100" height="100"/>
	</g>
</g>
<g transform="translate(660,858) scale(0.33,0.33)">
	<g transform="">
		<rect x="200" y="200" width="100" height="100"/>
	</g>
</g>
<g transform="translate(726,858) scale(0.33,0.33)">
	<g transform="">
		<rect x="200" y="200" width="100" height="100"/>
	</g>
</g>
<g transform="translate(792,858) scale(0.33,0.33)">
	<g transform="">
		<rect x="200" y="200" width="100" height="100"/>
	</g>
</g>
<g transform="translate(858,858) scale(0.33,0.33)">
	<g transform="">
		<rect x="200" y="200" width="100" height="100"/>
	</g>
</g>
<g transform="translate(924,858) scale(0.33,0.33)">
	<g transform="">
		<rect x="200" y="200" width="100" height="100"/>
	</g>
</g>
<g transform="translate(957,858) scale(0.33,0.33)">
	<g transform="">
		<rect x="200" y="200" width="100" height="100"/>
	</g>
</g>
<g transform="translate(990,858) scale(0.33,0.33)">
	<g transform="">
		<rect x="200" y="200" width="100" height="100"/>
	</g>
</g>
<g transform="translate(1023,858) scale(0.33,0.33)">
	<g transform="">
		<rect x="200" y="200" width="100" height="100"/>
	</g>
</g>
<g transform="translate(264,891) scale(0.33,0.33)">
	<g transform="">
		<rect x="200" y="200" width="100" height="100"/>
	</g>
</g>
<g transform="translate(297,891) scale(0.33,0.33)">
	<g transform="">
		<rect x="200" y="200" width="100" height="100"/>
	</g>
</g>
<g transform="translate(330,891) scale(0.33,0.33)">
	<g transform="">
		<rect x="200" y="200" width="100" height="100"/>
	</g>
</g>
<g transform="translate(363,891) scale(0.33,0.33)">
	<g transform="">
		<rect x="200" y="200" width="100" height="100"/>
	</g>
</g>
<g transform="translate(396,891) scale(0.33,0.33)">
	<g transform="">
		<rect x="200" y="200" width="100" height="100"/>
	</g>
</g>
<g transform="translate(495,891) scale(0.33,0.33)">
	<g transform="">
		<rect x="200" y="200" width="100" height="100"/>
	</g>
</g>
<g transform="translate(528,891) scale(0.33,0.33)">
	<g transform="">
		<rect x="200" y="200" width="100" height="100"/>
	</g>
</g>
<g transform="translate(627,891) scale(0.33,0.33)">
	<g transform="">
		<rect x="200" y="200" width="100" height="100"/>
	</g>
</g>
<g transform="translate(660,891) scale(0.33,0.33)">
	<g transform="">
		<rect x="200" y="200" width="100" height="100"/>
	</g>
</g>
<g transform="translate(693,891) scale(0.33,0.33)">
	<g transform="">
		<rect x="200" y="200" width="100" height="100"/>
	</g>
</g>
<g transform="translate(726,891) scale(0.33,0.33)">
	<g transform="">
		<rect x="200" y="200" width="100" height="100"/>
	</g>
</g>
<g transform="translate(792,891) scale(0.33,0.33)">
	<g transform="">
		<rect x="200" y="200" width="100" height="100"/>
	</g>
</g>
<g transform="translate(924,891) scale(0.33,0.33)">
	<g transform="">
		<rect x="200" y="200" width="100" height="100"/>
	</g>
</g>
<g transform="translate(297,924) scale(0.33,0.33)">
	<g transform="">
		<rect x="200" y="200" width="100" height="100"/>
	</g>
</g>
<g transform="translate(330,924) scale(0.33,0.33)">
	<g transform="">
		<rect x="200" y="200" width="100" height="100"/>
	</g>
</g>
<g transform="translate(363,924) scale(0.33,0.33)">
	<g transform="">
		<rect x="200" y="200" width="100" height="100"/>
	</g>
</g>
<g transform="translate(495,924) scale(0.33,0.33)">
	<g transform="">
		<rect x="200" y="200" width="100" height="100"/>
	</g>
</g>
<g transform="translate(528,924) scale(0.33,0.33)">
	<g transform="">
		<rect x="200" y="200" width="100" height="100"/>
	</g>
</g>
<g transform="translate(660,924) scale(0.33,0.33)">
	<g transform="">
		<rect x="200" y="200" width="100" height="100"/>
	</g>
</g>
<g transform="translate(693,924) scale(0.33,0.33)">
	<g transform="">
		<rect x="200" y="200" width="100" height="100"/>
	</g>
</g>
<g transform="translate(726,924) scale(0.33,0.33)">
	<g transform="">
		<rect x="200" y="200" width="100" height="100"/>
	</g>
</g>
<g transform="translate(792,924) scale(0.33,0.33)">
	<g transform="">
		<rect x="200" y="200" width="100" height="100"/>
	</g>
</g>
<g transform="translate(825,924) scale(0.33,0.33)">
	<g transform="">
		<rect x="200" y="200" width="100" height="100"/>
	</g>
</g>
<g transform="translate(858,924) scale(0.33,0.33)">
	<g transform="">
		<rect x="200" y="200" width="100" height="100"/>
	</g>
</g>
<g transform="translate(891,924) scale(0.33,0.33)">
	<g transform="">
		<rect x="200" y="200" width="100" height="100"/>
	</g>
</g>
<g transform="translate(924,924) scale(0.33,0.33)">
	<g transform="">
		<rect x="200" y="200" width="100" height="100"/>
	</g>
</g>
<g transform="translate(957,924) scale(0.33,0.33)">
	<g transform="">
		<rect x="200" y="200" width="100" height="100"/>
	</g>
</g>
<g transform="translate(1056,924) scale(0.33,0.33)">
	<g transform="">
		<rect x="200" y="200" width="100" height="100"/>
	</g>
</g>
<g transform="translate(264,957) scale(0.33,0.33)">
	<g transform="">
		<rect x="200" y="200" width="100" height="100"/>
	</g>
</g>
<g transform="translate(396,957) scale(0.33,0.33)">
	<g transform="">
		<rect x="200" y="200" width="100" height="100"/>
	</g>
</g>
<g transform="translate(429,957) scale(0.33,0.33)">
	<g transform="">
		<rect x="200" y="200" width="100" height="100"/>
	</g>
</g>
<g transform="translate(495,957) scale(0.33,0.33)">
	<g transform="">
		<rect x="200" y="200" width="100" height="100"/>
	</g>
</g>
<g transform="translate(627,957) scale(0.33,0.33)">
	<g transform="">
		<rect x="200" y="200" width="100" height="100"/>
	</g>
</g>
<g transform="translate(660,957) scale(0.33,0.33)">
	<g transform="">
		<rect x="200" y="200" width="100" height="100"/>
	</g>
</g>
<g transform="translate(759,957) scale(0.33,0.33)">
	<g transform="">
		<rect x="200" y="200" width="100" height="100"/>
	</g>
</g>
<g transform="translate(858,957) scale(0.33,0.33)">
	<g transform="">
		<rect x="200" y="200" width="100" height="100"/>
	</g>
</g>
<g transform="translate(924,957) scale(0.33,0.33)">
	<g transform="">
		<rect x="200" y="200" width="100" height="100"/>
	</g>
</g>
<g transform="translate(957,957) scale(0.33,0.33)">
	<g transform="">
		<rect x="200" y="200" width="100" height="100"/>
	</g>
</g>
<g transform="translate(990,957) scale(0.33,0.33)">
	<g transform="">
		<rect x="200" y="200" width="100" height="100"/>
	</g>
</g>
<g transform="translate(297,990) scale(0.33,0.33)">
	<g transform="">
		<rect x="200" y="200" width="100" height="100"/>
	</g>
</g>
<g transform="translate(330,990) scale(0.33,0.33)">
	<g transform="">
		<rect x="200" y="200" width="100" height="100"/>
	</g>
</g>
<g transform="translate(363,990) scale(0.33,0.33)">
	<g transform="">
		<rect x="200" y="200" width="100" height="100"/>
	</g>
</g>
<g transform="translate(396,990) scale(0.33,0.33)">
	<g transform="">
		<rect x="200" y="200" width="100" height="100"/>
	</g>
</g>
<g transform="translate(462,990) scale(0.33,0.33)">
	<g transform="">
		<rect x="200" y="200" width="100" height="100"/>
	</g>
</g>
<g transform="translate(693,990) scale(0.33,0.33)">
	<g transform="">
		<rect x="200" y="200" width="100" height="100"/>
	</g>
</g>
<g transform="translate(924,990) scale(0.33,0.33)">
	<g transform="">
		<rect x="200" y="200" width="100" height="100"/>
	</g>
</g>
<g transform="translate(957,990) scale(0.33,0.33)">
	<g transform="">
		<rect x="200" y="200" width="100" height="100"/>
	</g>
</g>
<g transform="translate(990,990) scale(0.33,0.33)">
	<g transform="">
		<rect x="200" y="200" width="100" height="100"/>
	</g>
</g>
<g transform="translate(1056,990) scale(0.33,0.33)">
	<g transform="">
		<rect x="200" y="200" width="100" height="100"/>
	</g>
</g>
<g transform="translate(330,1023) scale(0.33,0.33)">
	<g transform="">
		<rect x="200" y="200" width="100" height="100"/>
	</g>
</g>
<g transform="translate(396,1023) scale(0.33,0.33)">
	<g transform="">
		<rect x="200" y="200" width="100" height="100"/>
	</g>
</g>
<g transform="translate(429,1023) scale(0.33,0.33)">
	<g transform="">
		<rect x="200" y="200" width="100" height="100"/>
	</g>
</g>
<g transform="translate(495,1023) scale(0.33,0.33)">
	<g transform="">
		<rect x="200" y="200" width="100" height="100"/>
	</g>
</g>
<g transform="translate(528,1023) scale(0.33,0.33)">
	<g transform="">
		<rect x="200" y="200" width="100" height="100"/>
	</g>
</g>
<g transform="translate(561,1023) scale(0.33,0.33)">
	<g transform="">
		<rect x="200" y="200" width="100" height="100"/>
	</g>
</g>
<g transform="translate(693,1023) scale(0.33,0.33)">
	<g transform="">
		<rect x="200" y="200" width="100" height="100"/>
	</g>
</g>
<g transform="translate(759,1023) scale(0.33,0.33)">
	<g transform="">
		<rect x="200" y="200" width="100" height="100"/>
	</g>
</g>
<g transform="translate(792,1023) scale(0.33,0.33)">
	<g transform="">
		<rect x="200" y="200" width="100" height="100"/>
	</g>
</g>
<g transform="translate(825,1023) scale(0.33,0.33)">
	<g transform="">
		<rect x="200" y="200" width="100" height="100"/>
	</g>
</g>
<g transform="translate(264,1056) scale(0.33,0.33)">
	<g transform="">
		<rect x="200" y="200" width="100" height="100"/>
	</g>
</g>
<g transform="translate(396,1056) scale(0.33,0.33)">
	<g transform="">
		<rect x="200" y="200" width="100" height="100"/>
	</g>
</g>
<g transform="translate(528,1056) scale(0.33,0.33)">
	<g transform="">
		<rect x="200" y="200" width="100" height="100"/>
	</g>
</g>
<g transform="translate(693,1056) scale(0.33,0.33)">
	<g transform="">
		<rect x="200" y="200" width="100" height="100"/>
	</g>
</g>
<g transform="translate(792,1056) scale(0.33,0.33)">
	<g transform="">
		<rect x="200" y="200" width="100" height="100"/>
	</g>
</g>
<g transform="translate(924,1056) scale(0.33,0.33)">
	<g transform="">
		<rect x="200" y="200" width="100" height="100"/>
	</g>
</g>
<g transform="translate(957,1056) scale(0.33,0.33)">
	<g transform="">
		<rect x="200" y="200" width="100" height="100"/>
	</g>
</g>
<g transform="translate(1023,1056) scale(0.33,0.33)">
	<g transform="">
		<rect x="200" y="200" width="100" height="100"/>
	</g>
</g>
<g transform="">
	<g>
		<path d="M262.4,66H100.7H66v34.7v161.7V297h34.7h161.7H297v-34.6V100.7V66H262.4z M262.4,262.4H100.7V100.7h161.7V262.4z"/>
	</g>
</g>
<g transform="translate(858,0) scale(2.31, 2.31)">
	<g transform="">
		<g>
			<path d="M113.6,28.6h-70h-15v15v70v15h15h70h15v-15v-70v-15H113.6z M113.6,113.6h-70v-70h70V113.6z"/>
		</g>
	</g>
</g>
<g transform="">
	<g>
		<path d="M262.4,924H100.7H66v34.6v161.7v34.7h34.7h161.7H297v-34.7V958.7V924H262.4z M262.4,1120.3H100.7V958.7h161.7V1120.3z"/>
	</g>
</g>
<g transform="translate(66,66) scale(0.99, 0.99)">
	<g transform="">
		<rect x="66.7" y="66.7" width="100" height="100"/>
	</g>
</g>
<g transform="translate(924,66) scale(0.99, 0.99)">
	<g transform="">
		<rect x="66.7" y="66.7" width="100" height="100"/>
	</g>
</g>
<g transform="translate(66,924) scale(0.99, 0.99)">
	<g transform="">
		<rect x="66.7" y="66.7" width="100" height="100"/>
	</g>
</g>
</svg>
